<svg width="130" height="55" fill="none" xmlns="http://www.w3.org/2000/svg"><path d="M84.483 24l-.931-3.059h-4.685L77.936 24H75l4.535-12.902h3.331L87.42 24h-2.936zm-1.582-5.344c-.861-2.771-1.347-4.339-1.459-4.702-.105-.363-.181-.65-.228-.861-.194.75-.747 2.604-1.661 5.563H82.9zm15.814-7.506h2.751L97.098 24h-2.97l-4.36-12.85h2.75l2.418 7.647c.134.451.272.978.413 1.582.146.598.237 1.014.272 1.248.065-.54.284-1.482.66-2.83l2.434-7.647zM110.389 24h-2.725V13.418h-3.489V11.15h9.703v2.268h-3.489V24zm19.47-6.442c0 2.127-.527 3.761-1.582 4.904-1.055 1.143-2.567 1.714-4.535 1.714-1.969 0-3.481-.571-4.535-1.714-1.055-1.143-1.583-2.783-1.583-4.922s.528-3.77 1.583-4.895c1.06-1.131 2.578-1.697 4.552-1.697 1.975 0 3.484.569 4.527 1.705 1.048 1.137 1.573 2.772 1.573 4.905zm-9.378 0c0 1.435.272 2.516.817 3.243.545.726 1.36 1.09 2.444 1.09 2.174 0 3.26-1.445 3.26-4.333 0-2.895-1.081-4.342-3.243-4.342-1.084 0-1.901.366-2.452 1.099-.551.726-.826 1.807-.826 3.243zM79.64 45l-2.899-8.347h-.055c.078 1.24.117 2.402.117 3.487V45h-1.484v-9.994h2.304l2.775 7.95h.041l2.858-7.95h2.31V45h-1.572v-4.942c0-.497.011-1.144.034-1.942.028-.797.05-1.28.069-1.449h-.055L81.082 45H79.64zm19.292-5.01c0 1.626-.408 2.89-1.223 3.793-.812.902-1.962 1.354-3.453 1.354-1.508 0-2.668-.447-3.479-1.34-.807-.898-1.21-2.172-1.21-3.821 0-1.65.406-2.917 1.217-3.801.816-.884 1.978-1.326 3.486-1.326 1.486 0 2.634.449 3.446 1.346.81.898 1.216 2.163 1.216 3.794zm-7.629 0c0 1.23.249 2.164.746 2.802.496.633 1.232.95 2.207.95.971 0 1.703-.314 2.195-.943.497-.63.745-1.566.745-2.81 0-1.226-.246-2.155-.738-2.789-.488-.633-1.217-.95-2.188-.95-.98 0-1.72.317-2.221.95-.497.634-.746 1.563-.746 2.79zM106.351 45h-1.634v-8.593h-2.939v-1.401h7.512v1.401h-2.939V45zm15.171-5.01c0 1.626-.408 2.89-1.224 3.793-.811.902-1.962 1.354-3.452 1.354-1.509 0-2.669-.447-3.48-1.34-.806-.898-1.21-2.172-1.21-3.821 0-1.65.406-2.917 1.217-3.801.816-.884 1.978-1.326 3.486-1.326 1.486 0 2.635.449 3.446 1.346.811.898 1.217 2.163 1.217 3.794zm-7.629 0c0 1.23.248 2.164.745 2.802.496.633 1.232.95 2.208.95.97 0 1.702-.314 2.194-.943.497-.63.745-1.566.745-2.81 0-1.226-.246-2.155-.738-2.789-.488-.633-1.217-.95-2.188-.95-.979 0-1.72.317-2.221.95-.497.634-.745 1.563-.745 2.79z" fill="#48494D"/><path d="M42.155 27.269l-6.784-.55a1.833 1.833 0 01-1.046-3.22l5.165-4.43a14.71 14.71 0 00-7.68-5.591l-2.62 6.288a1.833 1.833 0 01-3.384 0l-2.614-6.283a14.71 14.71 0 00-7.68 5.592l5.165 4.43a1.833 1.833 0 01-1.046 3.22l-6.783.55c0 .078-.012.153-.012.23a14.573 14.573 0 002.952 8.8l5.803-3.54a1.833 1.833 0 012.738 1.99l-1.575 6.619a14.477 14.477 0 009.497 0l-1.575-6.619a1.833 1.833 0 012.738-1.99l5.8 3.535a14.573 14.573 0 002.953-8.8c0-.078-.01-.153-.012-.231zM27.5 30.25a2.75 2.75 0 110-5.5 2.75 2.75 0 010 5.5z" fill="#D12136"/><path d="M27.5.917C12.819.917.917 12.819.917 27.5S12.819 54.083 27.5 54.083 54.083 42.181 54.083 27.5 42.181.917 27.5.917zm0 41.25c-8.1 0-14.667-6.566-14.667-14.667 0-8.1 6.566-14.667 14.667-14.667 8.1 0 14.667 6.566 14.667 14.667 0 8.1-6.566 14.667-14.667 14.667z" fill="#2B2733"/><path d="M44.867 7.383c9.595 11.107 8.37 27.89-2.737 37.484-9.979 8.62-24.768 8.62-34.747 0 9.59 11.112 26.372 12.346 37.484 2.755 11.112-9.591 12.346-26.373 2.755-37.485a26.59 26.59 0 00-2.755-2.754z" fill="#1A1721"/><path d="M19.263 5.115l1.744-.566-.85-2.616-1.743.567.85 2.615z" fill="#555160"/><path d="M34.844 53.063l1.744-.567-.85-2.616-1.743.567.85 2.616z" fill="#3B3944"/><path d="M28.417.917h-1.834v2.75h1.834V.917z" fill="#555160"/><path d="M28.417 51.333h-1.834v2.75h1.834v-2.75z" fill="#3B3944"/><path d="M12.75 8.757l1.483-1.077-1.617-2.225-1.483 1.078 1.617 2.224z" fill="#555160"/><path d="M42.382 49.544l1.483-1.077-1.617-2.225-1.483 1.078 1.617 2.224z" fill="#3B3944"/><path d="M7.68 14.233l1.077-1.483-2.225-1.616-1.077 1.483 2.224 1.616z" fill="#555160"/><path d="M48.468 43.867l1.078-1.483-2.224-1.617-1.078 1.483 2.224 1.617z" fill="#3B3944"/><path d="M4.548 21.007l.567-1.743-2.616-.85-.566 1.744 2.615.85z" fill="#555160"/><path d="M52.5 36.592l.566-1.744-2.615-.85-.567 1.744 2.616.85z" fill="#3B3944"/><path d="M3.667 26.583H.917v1.834h2.75v-1.834z" fill="#555160"/><path d="M54.083 26.583h-2.75v1.834h2.75v-1.834z" fill="#3B3944"/><path d="M2.505 36.586l2.615-.85-.567-1.743-2.615.85.567 1.743zM6.53 43.865l2.225-1.617-1.078-1.483-2.225 1.617 1.078 1.483zM42.25 8.757l1.616-2.225-1.484-1.077-1.616 2.224 1.483 1.078zM35.74 5.116l.85-2.615-1.744-.567-.85 2.615 1.743.567z" fill="#555160"/><path d="M53.066 20.157l-.568-1.741-1.796.584c.133.6.248 1.204.34 1.818l2.024-.66zM49.545 12.616l-1.077-1.483-.625.458c.305.535.6 1.077.868 1.636l.834-.61zM11.133 48.468l1.483 1.077.607-.834c-.558-.269-1.1-.563-1.635-.868l-.455.625zM18.413 52.498l1.742.568.657-2.024a26.46 26.46 0 01-1.818-.34l-.58 1.797z" fill="#3B3944"/><path d="M50.45 21.007l.592-.192a26.46 26.46 0 00-.34-1.818l-.819.266.568 1.744zM47.321 14.233l1.39-1.008a26.4 26.4 0 00-.868-1.636l-1.6 1.163 1.078 1.481zM12.75 46.243l-1.162 1.6c.534.305 1.077.6 1.635.868l1.008-1.39-1.481-1.078zM19.263 49.883l-.266.819c.6.133 1.204.248 1.818.34l.192-.591-1.744-.568zM27.5 8.25c-10.631 0-19.25 8.619-19.25 19.25 0 10.632 8.619 19.25 19.25 19.25 10.632 0 19.25-8.618 19.25-19.25 0-10.631-8.618-19.25-19.25-19.25zm0 33.917c-8.1 0-14.667-6.566-14.667-14.667 0-8.1 6.566-14.667 14.667-14.667 8.1 0 14.667 6.566 14.667 14.667 0 8.1-6.566 14.667-14.667 14.667z" fill="#555160"/><path d="M40.631 13.451c7.263 7.748 6.87 19.917-.877 27.18-7.396 6.934-18.905 6.934-26.302 0 7.242 7.769 19.41 8.196 27.18.955 7.77-7.242 8.196-19.41.955-27.18a19.625 19.625 0 00-.956-.955z" fill="#3B3944"/><path d="M35.842 15.458a14.624 14.624 0 00-4.034-1.975l-.505 1.211c1.537.08 3.06.337 4.539.764zM24.083 15.63l-.891-2.147a14.71 14.71 0 00-7.68 5.592l1.08.926a20.14 20.14 0 017.49-4.37z" fill="#9C1928"/><path d="M27.5 7.333c-11.137 0-20.167 9.03-20.167 20.167 0 11.138 9.03 20.167 20.167 20.167 11.138 0 20.167-9.03 20.167-20.167C47.654 16.367 38.633 7.346 27.5 7.333zm0 38.5c-10.125 0-18.333-8.207-18.333-18.333 0-10.125 8.208-18.333 18.333-18.333 10.126 0 18.333 8.208 18.333 18.333-.012 10.12-8.213 18.321-18.333 18.333z" fill="#000"/><path d="M27.5 11.917c-8.607 0-15.583 6.976-15.583 15.583S18.893 43.083 27.5 43.083c8.606 0 15.583-6.977 15.583-15.583-.009-8.603-6.98-15.574-15.583-15.583zm13.688 14.355l-5.741-.464a.917.917 0 01-.522-1.608l4.362-3.743a13.633 13.633 0 011.9 5.815zM30.56 14.106l-2.215 5.316a.916.916 0 01-1.692 0l-2.215-5.316a13.355 13.355 0 016.122 0zm-14.85 6.35l4.364 3.744a.916.916 0 01-.523 1.61l-5.74.464a13.633 13.633 0 011.902-5.819h-.003zm1.445 16.077l4.906-2.993a.917.917 0 011.37.995L22.1 40.142a13.815 13.815 0 01-4.942-3.61h-.003zm6.684 4.208l1.375-5.782a2.75 2.75 0 00-4.108-2.984l-5.073 3.097a13.66 13.66 0 01-2.253-6.959l5.92-.478a2.75 2.75 0 001.566-4.828l-4.51-3.869a13.803 13.803 0 015.917-4.298l2.284 5.485a2.75 2.75 0 005.078 0l2.285-5.485a13.803 13.803 0 015.917 4.298l-4.505 3.869a2.75 2.75 0 001.569 4.828l5.92.478a13.66 13.66 0 01-2.254 6.959l-5.079-3.098a2.75 2.75 0 00-4.107 2.985l1.375 5.782a13.4 13.4 0 01-7.315 0h-.002zm9.056-.598l-1.333-5.608a.916.916 0 011.37-.995l4.905 2.993a13.805 13.805 0 01-4.939 3.61h-.003z" fill="#000"/><path d="M31.167 27.5a3.667 3.667 0 10-7.334 0 3.667 3.667 0 007.334 0zM27.5 29.333a1.833 1.833 0 11-.001-3.665 1.833 1.833 0 01.001 3.665z" fill="#000"/><path d="M27.5 55C12.312 55 0 42.688 0 27.5S12.312 0 27.5 0 55 12.312 55 27.5C54.983 42.681 42.681 54.983 27.5 55zm0-53.167C13.325 1.833 1.833 13.325 1.833 27.5S13.325 53.167 27.5 53.167 53.167 41.675 53.167 27.5C53.15 13.331 41.669 1.85 27.5 1.833z" fill="#000"/></svg>